<?xml version="1.0" encoding="utf-8"?>
<!-- Generator: Adobe Illustrator 18.1.1, Sfill="#010202" stroke="#010202"VG Export Plug-In . SVG Version: 6.00 Build 0)  -->
<svg version="1.1" id="Calque_1" xmlns="http://www.w3.org/2000/svg" xmlns:xlink="http://www.w3.org/1999/xlink" x="0px" y="0px"
	 viewBox="70 0 500 480" enable-background="new 70 0 500 480" xml:space="preserve">
<g>
	<path  d="M468.3,261.6c0.2,11.1-1.8,21.4-5.8,31.3c-4.1,9.8-9.6,18.3-16.7,25.5s-15.3,13.1-24.8,17.2
		s-19.2,6-29.6,5.9c-21.8,0-39.8-7.7-53.8-23.2c-14.1-15.4-21.2-35.2-21.2-59.4c0-30.6,11.7-58.7,35.2-84
		c23.7-25.3,52.9-40.9,87.9-46.8l4.1,2.7c-9.9,5.7-18.2,14.1-24.8,25.1c-6.4,10.7-10.2,21.8-11.1,33.2
		C448,201,468.3,225.2,468.3,261.6z"/>
</g>
<g>
	<path d="M315.1,261.6c0.1,11.1-1.8,21.4-5.9,31.3c-4.1,9.8-9.6,18.3-16.6,25.5s-15.3,13.1-24.8,17.2
		s-19.2,6-29.6,5.9c-21.8,0-39.8-7.7-53.8-23.2c-14.1-15.4-21.2-35.2-21.2-59.4c0-30.6,11.7-58.7,35.2-84
		c23.7-25.3,52.9-40.9,87.9-46.8l4.1,2.7c-9.9,5.7-18.1,14.1-24.8,25.1c-6.4,10.7-10.2,21.8-11.1,33.2
		C294.9,201,315.1,225.2,315.1,261.6z"/>
</g>
<circle fill="none" stroke-width="20" stroke-miterlimit="10" cx="318.9" cy="241.5" r="218.7"/>
</svg>
