<svg xmlns="http://www.w3.org/2000/svg" xmlns:xlink="http://www.w3.org/1999/xlink" version="1.1" id="Layer_1" x="0px" y="0px" viewBox="0 0 100 100" enable-background="new 0 0 100 100" xml:space="preserve" height="100px" width="100px">
<path d="M50,5C25.1,5,5,25.1,5,50c0,24.8,20.1,45,45,45c24.9,0,45-20.2,45-45C95,25.1,74.9,5,50,5L50,5z M50,59.7  c5.4,0,9.7-4.4,9.7-9.7c0-5.4-4.4-9.8-9.7-9.8s-9.7,4.4-9.7,9.8C40.3,55.4,44.6,59.7,50,59.7L50,59.7z M78.2,44.4  c0.7,0.2,1.1,0.8,1.1,1.4v8.5c0,0.6-0.5,1.3-1.1,1.4l-6.9,1.1c-0.4,1.3-0.9,2.3-1.5,3.4c1.3,1.9,2.7,3.6,4,5.4  c0.5,0.7,0.6,1.2,0.1,1.7c-1,1.2-6.1,6.9-7.3,6.9c-0.4,0-0.8-0.1-1.1-0.4l-5.3-4.1c-1.1,0.6-2.3,1.1-3.4,1.5  c-0.3,2.2-0.6,4.7-1.1,6.9c-0.2,0.7-0.6,1.1-1.4,1.1h-8.5c-0.8,0-1.3-0.5-1.4-1.1l-1-6.9c-1.1-0.4-2.3-0.9-3.4-1.4l-5.5,4  c-0.6,0.5-1.3,0.4-1.8-0.1c-2.1-1.9-4.7-4.2-6.3-6.5c-0.4-0.5-0.4-1.1,0-1.7c1.3-1.9,2.8-3.6,4-5.3c-0.6-1.3-1.2-2.5-1.5-3.6  l-6.9-1.2c-0.7-0.1-1.1-0.7-1.1-1.4v-8.4c0-0.7,0.5-1.4,1.1-1.5l6.9-1.1c0.4-1.3,0.9-2.3,1.5-3.5c-1.3-1.8-2.7-3.5-4-5.3  c-0.6-0.7-0.7-1.1-0.1-1.8c1-1.3,6-6.9,7.3-6.9c0.3,0,0.7,0.2,1.1,0.5l5.3,4c1.1-0.6,2.3-1.1,3.4-1.5c0.3-2.2,0.6-4.7,1.1-6.9  c0.2-0.7,0.7-1.1,1.4-1.1h8.5c0.8,0,1.3,0.5,1.4,1.2l1.1,6.9c1.1,0.4,2.3,0.9,3.4,1.4l5.5-4c0.6-0.5,1.3-0.5,1.8,0.1  c2.1,1.8,4.8,4.2,6.3,6.4c0.4,0.6,0.4,1.2,0,1.7c-1.3,1.9-2.7,3.6-4,5.3c0.6,1.3,1.2,2.6,1.5,3.7L78.2,44.4z"/>
</svg>