<svg xmlns="http://www.w3.org/2000/svg" xmlns:xlink="http://www.w3.org/1999/xlink" version="1.1" id="Layer_1" x="0px" y="0px" width="100px" height="100px" viewBox="5.0 -10.0 100.0 135.0" enable-background="new 0 0 100 100" xml:space="preserve">
<g>
	<path d="M81,13c0,3.3-3.15,6-7,6H7c-3.85,0-7-2.7-7-6s3.15-6,7-6h67C77.85,7,81,9.7,81,13z"/>
</g>
<g>
	<path d="M56,88c0,3.3-3.15,6-7,6H7c-3.85,0-7-2.7-7-6s3.15-6,7-6h42C52.85,82,56,84.7,56,88z"/>
</g>
<g>
	<path d="M100,31.5c0,3.575-3.15,6.5-7,6.5H7c-3.85,0-7-2.925-7-6.5S3.15,25,7,25h86C96.85,25,100,27.925,100,31.5z"/>
</g>
<g>
	<path d="M100,50.5c0,3.575-3.15,6.5-7,6.5H7c-3.85,0-7-2.925-7-6.5S3.15,44,7,44h86C96.85,44,100,46.925,100,50.5z"/>
</g>
<g>
	<path d="M100,69c0,3.3-3.15,6-7,6H7c-3.85,0-7-2.7-7-6s3.15-6,7-6h86C96.85,63,100,65.7,100,69z"/>
</g></svg>