<?xml version="1.0" encoding="utf-8"?>
<!-- Generator: Adobe Illustrator 18.1.1, SVG Export Plug-In . SVG Version: 6.00 Build 0)  -->
<svg version="1.1" id="Calque_1" xmlns="http://www.w3.org/2000/svg" xmlns:xlink="http://www.w3.org/1999/xlink" x="0px" y="0px"
	 viewBox="0 0 640 480" enable-background="new 0 0 640 480" xml:space="preserve">
<g>
	<path fill="#010202" d="M622,290.6c0.3,22.2-3.6,42.9-11.8,62.6c-8.2,19.5-19.3,36.6-33.4,51.1c-14.2,14.5-30.6,26-49.4,34.4
		c-18.8,8.4-38.5,12.1-59.2,11.6c-43.4,0-79.4-15.4-107.8-46.4c-28.2-31-42.4-70.5-42.4-118.7c0-61.2,23.4-117.2,70.5-168
		c47.4-50.6,105.9-81.9,175.7-93.7l8.2,5.5c-19.7,11.5-36.3,28.2-49.6,50.1c-13,21.2-20.5,43.4-22.2,66.4
		C581.5,169.5,622,217.9,622,290.6z"/>
</g>
<g>
	<path fill="#010202" d="M315.5,290.6c0.3,22.2-3.6,42.9-11.8,62.6c-8.2,19.5-19.3,36.6-33.4,51.1c-14.2,14.5-30.6,26-49.4,34.4
		c-18.8,8.4-38.5,12.1-59.2,11.6c-43.4,0-79.4-15.4-107.8-46.4c-28.2-31-42.4-70.5-42.4-118.7c0-61.2,23.4-117.2,70.5-168
		c47.4-50.6,105.9-81.9,175.7-93.7l8.2,5.5c-19.7,11.5-36.3,28.2-49.6,50.1c-13,21.2-20.5,43.4-22.2,66.4
		C275,169.5,315.5,217.9,315.5,290.6z"/>
</g>
</svg>
